<svg width="32" height="32" viewBox="0 0 32 32" fill="none" xmlns="http://www.w3.org/2000/svg">
<circle cx="16" cy="16" r="16" fill="white"/>
<path fill-rule="evenodd" clip-rule="evenodd" d="M15.9993 7.66602C13.7355 7.66602 13.4528 7.67643 12.5639 7.71602C11.8726 7.73045 11.1887 7.86146 10.541 8.10352C9.98478 8.31257 9.48091 8.64058 9.06463 9.06463C8.64021 9.4806 8.31214 9.98456 8.10352 10.541C7.86112 11.1886 7.73011 11.8726 7.71602 12.5639C7.67435 13.4528 7.66602 13.7355 7.66602 15.9993C7.66602 18.2632 7.67643 18.5459 7.71602 19.4348C7.73052 20.1261 7.86153 20.81 8.10352 21.4577C8.31275 22.0138 8.64074 22.5177 9.06463 22.9341C9.48079 23.3583 9.9847 23.6863 10.541 23.8952C11.1888 24.1371 11.8726 24.2681 12.5639 24.2827C13.4528 24.3244 13.7355 24.3327 15.9993 24.3327C18.2632 24.3327 18.5459 24.3223 19.4348 24.2827C20.126 24.2678 20.8099 24.1368 21.4577 23.8952C22.5774 23.4625 23.4625 22.5774 23.8952 21.4577C24.1372 20.81 24.2682 20.1261 24.2827 19.4348C24.3244 18.5459 24.3327 18.2632 24.3327 15.9993C24.3327 13.7355 24.3223 13.4528 24.2827 12.5639C24.2679 11.8727 24.1369 11.1888 23.8952 10.541C23.6859 9.98493 23.3579 9.48111 22.9341 9.06463C22.5182 8.64007 22.0142 8.31198 21.4577 8.10352C20.8101 7.86119 20.1261 7.73017 19.4348 7.71602C18.5459 7.67435 18.2632 7.66602 15.9993 7.66602ZM15.9997 9.16585C18.2219 9.16585 18.4893 9.17696 19.3677 9.21515C19.896 9.22152 20.4192 9.31902 20.9143 9.50335C21.6423 9.78166 22.2176 10.3566 22.4962 11.0846C22.6799 11.5798 22.7769 12.103 22.783 12.6311C22.8226 13.5103 22.8316 13.7742 22.8316 15.9992C22.8316 18.2242 22.8212 18.4888 22.7802 19.3672C22.7706 19.8955 22.6718 20.4184 22.4879 20.9138C22.3521 21.2755 22.1388 21.603 21.8629 21.8735C21.5938 22.1504 21.2664 22.3639 20.9045 22.4985C20.4074 22.6821 19.8824 22.7791 19.3525 22.7853C18.4677 22.8249 18.2073 22.8339 15.9782 22.8339C13.749 22.8339 13.4879 22.8235 12.6039 22.7825C12.0735 22.773 11.5486 22.6741 11.0511 22.4902C10.6891 22.3561 10.3619 22.1425 10.0934 21.8652C9.81468 21.5976 9.60088 21.2698 9.46844 20.9068C9.28491 20.4095 9.18631 19.8848 9.17677 19.3547C9.14552 18.4797 9.13441 18.2096 9.13441 15.9908C9.13441 13.7721 9.14552 13.5006 9.17677 12.6152C9.18714 12.0844 9.28692 11.5592 9.47191 11.0617C9.60228 10.6975 9.81636 10.369 10.0969 10.1027C10.3627 9.82212 10.6908 9.60802 11.0545 9.47765C11.5483 9.29326 12.0699 9.19484 12.5969 9.18668C13.4823 9.15543 13.7427 9.14501 15.9712 9.14501L15.9997 9.16585ZM15.9992 11.72C13.6359 11.72 11.72 13.6359 11.72 15.9992C11.72 18.3625 13.6359 20.2783 15.9992 20.2783C18.3625 20.2783 20.2783 18.3625 20.2783 15.9992C20.2783 13.6359 18.3625 11.72 15.9992 11.72L15.9992 11.72ZM15.9993 18.7771C14.4652 18.7771 13.2215 17.5334 13.2215 15.9993C13.2215 14.4652 14.4652 13.2215 15.9993 13.2215C17.5334 13.2215 18.7771 14.4652 18.7771 15.9993C18.7771 17.5334 17.5334 18.7771 15.9993 18.7771H15.9993ZM21.4477 11.5513C21.4479 11.9558 21.2045 12.3206 20.8308 12.4756C20.4572 12.6306 20.0269 12.5452 19.7408 12.2593C19.4547 11.9734 19.369 11.5432 19.5237 11.1694C19.6785 10.7957 20.0431 10.5519 20.4477 10.5519C20.9995 10.5523 21.4469 10.9994 21.4477 11.5513Z" fill="#16182D"/>
</svg>
