<svg width="32" height="32" viewBox="0 0 32 32" fill="none" xmlns="http://www.w3.org/2000/svg">
<circle cx="16" cy="16" r="16" fill="white"/>
<path fill-rule="evenodd" clip-rule="evenodd" d="M21.8659 20.8708H19.3979V17.0034C19.3979 16.0812 19.3791 14.8944 18.1118 14.8944C16.825 14.8944 16.6284 15.8979 16.6284 16.9354V20.8708H14.1604V12.918H16.5312V14.002H16.5632C17.0472 13.1755 17.9463 12.6819 18.9034 12.7173C21.4034 12.7173 21.8666 14.3632 21.8666 16.5055L21.8659 20.8708ZM11.3735 11.8296C10.5819 11.8299 9.93984 11.1885 9.93945 10.3969C9.93907 9.60531 10.5805 8.96327 11.3721 8.96289C12.1637 8.96251 12.8057 9.60392 12.8061 10.3955C12.8067 10.7758 12.6559 11.1407 12.3872 11.4097C12.1184 11.6787 11.7537 11.8298 11.3735 11.8296ZM12.6098 20.8704H10.1348V12.9176H12.6098V20.8704Z" fill="#16182D"/>
</svg>
