<svg width="32" height="32" viewBox="0 0 32 32" fill="none" xmlns="http://www.w3.org/2000/svg">
    <circle cx="16" cy="16" r="16" fill="white"/>
    <path fill-rule="evenodd" clip-rule="evenodd" d="M23.9848 11.9635C23.7883 11.2597 23.2384 10.7097 22.5345 10.5133C21.2357 10.166 16.0057 10.166 16.0057 10.166C16.0057 10.166 10.7917 10.1591 9.47689 10.5133C8.77386 10.7104 8.22478 11.2602 8.02874 11.9635C7.78231 13.2944 7.66093 14.6454 7.66618 15.9989C7.66207 17.3456 7.78342 18.6903 8.02865 20.015C8.22495 20.7191 8.77499 21.2693 9.47897 21.4658C10.7764 21.813 16.0078 21.813 16.0078 21.813C16.0078 21.813 21.2211 21.813 22.5366 21.4658C23.2396 21.2687 23.7887 20.7188 23.9848 20.0155C24.2249 18.6903 24.3411 17.3457 24.332 15.9989C24.3423 14.6459 24.2261 13.2949 23.9848 11.9636L23.9848 11.9635ZM14.3372 18.4924V13.4971L18.6878 15.9975L14.3372 18.4924Z" fill="#16182D"/>
</svg>
